<svg xmlns="http://www.w3.org/2000/svg" width="420" height="260" viewBox="0 0 420 260" role="img" aria-label="MAG-7 | Cinquedea">
  <defs>
    <linearGradient id="bg" x1="0" x2="1" y1="0" y2="1">
      <stop offset="0" stop-color="#121722"/>
      <stop offset="0.55" stop-color="#1f2735"/>
      <stop offset="1" stop-color="#8847ff"/>
    </linearGradient>
    <linearGradient id="metal" x1="0" x2="1">
      <stop offset="0" stop-color="#e8edf5"/>
      <stop offset="0.45" stop-color="#8e98a8"/>
      <stop offset="1" stop-color="#f7f0cf"/>
    </linearGradient>
    <filter id="shadow" x="-20%" y="-20%" width="140%" height="140%">
      <feDropShadow dx="0" dy="12" stdDeviation="12" flood-color="#000" flood-opacity="0.35"/>
    </filter>
  </defs>
  <rect width="420" height="260" rx="16" fill="url(#bg)"/>
  <path d="M22 42 C90 12 130 18 190 42 C250 66 312 50 392 22 L392 86 C326 116 256 112 198 86 C132 56 82 74 22 112 Z" fill="#8847ff" opacity="0.22"/>
  <g transform="translate(50 72) rotate(-8)" filter="url(#shadow)">
    <rect x="38" y="52" width="230" height="28" rx="10" fill="url(#metal)"/>
    <rect x="242" y="43" width="74" height="18" rx="8" fill="#dde4ef"/>
    <rect x="72" y="80" width="92" height="22" rx="8" fill="#384150"/>
    <rect x="112" y="96" width="44" height="44" rx="10" fill="#242b37"/>
    <rect x="168" y="84" width="52" height="15" rx="7" fill="#f2c24f"/>
    <circle cx="46" cy="66" r="16" fill="#242b37"/>
  </g>
  <rect x="24" y="24" width="118" height="28" rx="7" fill="#0e131d" opacity="0.76"/>
  <text x="34" y="43" fill="#8847ff" font-size="14" font-weight="800">Restricted</text>
  <text x="28" y="170" fill="#f9fbff" font-size="23" font-weight="800">Cinquedea</text>
  <text x="28" y="226" fill="#d7deea" font-size="15" font-weight="700">MAG-7 / Well-Worn</text>
  <text x="314" y="226" fill="#ffffff" font-size="17" font-weight="900">41 760 MC</text>
</svg>